<svg width="24" height="24" viewBox="0 0 24 24" fill="none" xmlns="http://www.w3.org/2000/svg">
<path d="M21.1524 11.9999C21.1524 12.4495 21.1224 12.8991 21.0624 13.3464C21.074 13.2657 21.0855 13.1827 21.0947 13.102C20.9748 13.9874 20.7396 14.8544 20.3915 15.6775C20.4215 15.6037 20.4537 15.53 20.4837 15.4562C20.1471 16.2516 19.709 16.9987 19.1833 17.6835C19.2317 17.6212 19.2801 17.559 19.3286 17.4967C18.7982 18.1838 18.1803 18.7995 17.4955 19.3298C17.5578 19.2814 17.62 19.2329 17.6823 19.1845C16.9975 19.7102 16.2504 20.1483 15.455 20.4849C15.5287 20.455 15.6025 20.4227 15.6763 20.3927C14.8532 20.7386 13.9862 20.9761 13.1008 21.096C13.1815 21.0844 13.2645 21.0729 13.3452 21.0637C12.4529 21.1813 11.5468 21.1813 10.6521 21.0637C10.7328 21.0752 10.8159 21.0867 10.8966 21.096C10.0112 20.9761 9.14421 20.7409 8.32107 20.3927C8.39485 20.4227 8.46863 20.455 8.54242 20.4849C7.74694 20.1483 6.99989 19.7102 6.3151 19.1845C6.37735 19.2329 6.4396 19.2814 6.50186 19.3298C5.81476 18.7995 5.19913 18.1815 4.66882 17.4967C4.71724 17.559 4.76566 17.6212 4.81408 17.6835C4.28837 16.9987 3.85029 16.2516 3.51365 15.4562C3.54363 15.53 3.57591 15.6037 3.60588 15.6775C3.26002 14.8544 3.02253 13.9874 2.90264 13.102C2.91417 13.1827 2.92569 13.2657 2.93492 13.3464C2.81733 12.4541 2.81733 11.548 2.93492 10.6534C2.92339 10.7341 2.91186 10.8171 2.90264 10.8978C3.02253 10.0124 3.25772 9.14543 3.60588 8.32229C3.57591 8.39608 3.54363 8.46986 3.51365 8.54364C3.85029 7.74817 4.28837 7.00112 4.81408 6.31632C4.76566 6.37858 4.71724 6.44083 4.66882 6.50308C5.19913 5.81598 5.81706 5.20036 6.50186 4.67004C6.4396 4.71846 6.37735 4.76688 6.3151 4.8153C6.99989 4.2896 7.74694 3.85151 8.54242 3.51488C8.46863 3.54485 8.39485 3.57713 8.32107 3.60711C9.14421 3.26125 10.0112 3.02376 10.8966 2.90386C10.8159 2.91539 10.7328 2.92692 10.6521 2.93614C11.5445 2.81855 12.4506 2.81855 13.3452 2.93614C13.2645 2.92462 13.1815 2.91309 13.1008 2.90386C13.9862 3.02376 14.8532 3.25894 15.6763 3.60711C15.6025 3.57713 15.5287 3.54485 15.455 3.51488C16.2504 3.85151 16.9975 4.2896 17.6823 4.8153C17.62 4.76688 17.5578 4.71846 17.4955 4.67004C18.1826 5.20036 18.7982 5.81829 19.3286 6.50308C19.2801 6.44083 19.2317 6.37858 19.1833 6.31632C19.709 7.00112 20.1471 7.74817 20.4837 8.54364C20.4537 8.46986 20.4215 8.39608 20.3915 8.32229C20.7373 9.14543 20.9748 10.0124 21.0947 10.8978C21.0832 10.8171 21.0717 10.7341 21.0624 10.6534C21.1224 11.1007 21.1524 11.5503 21.1524 11.9999C21.1524 12.4818 21.5766 12.9453 22.0747 12.9222C22.5727 12.8991 22.9969 12.5164 22.9969 11.9999C22.9946 10.8678 22.824 9.71956 22.4735 8.64048C22.1346 7.59369 21.6435 6.58609 21.0025 5.68917C20.6682 5.2188 20.3039 4.76688 19.9027 4.35185C19.4992 3.93452 19.0611 3.5633 18.6023 3.21052C17.7284 2.54187 16.7554 2.03 15.7247 1.64955C14.6664 1.25989 13.5343 1.05237 12.4068 1.00857C11.2632 0.962452 10.0988 1.1031 8.99664 1.41668C7.94293 1.71642 6.91919 2.17756 6.00152 2.78166C5.09537 3.37884 4.26301 4.10053 3.57129 4.93981C3.20007 5.38942 2.85422 5.8621 2.55447 6.36244C2.25243 6.86508 2.00571 7.39078 1.78437 7.93263C1.3555 8.97481 1.11801 10.0862 1.0304 11.209C0.94278 12.3504 1.04654 13.5148 1.31631 14.6284C1.57685 15.7006 2.01263 16.7474 2.58445 17.6904C3.14704 18.615 3.85029 19.4727 4.6619 20.1921C5.47812 20.9161 6.39349 21.534 7.38725 21.9837C7.92448 22.2258 8.47325 22.4379 9.04045 22.597C9.62149 22.7584 10.2118 22.8598 10.8112 22.9313C11.9595 23.0673 13.1285 22.9959 14.2606 22.7653C15.342 22.5463 16.398 22.1427 17.3618 21.6055C18.3071 21.0775 19.1879 20.3973 19.935 19.6157C20.6889 18.8271 21.3391 17.921 21.8256 16.9434C22.3214 15.9473 22.6811 14.8821 22.8494 13.7799C22.9393 13.1897 22.9969 12.5971 22.9992 11.9999C22.9992 11.518 22.575 11.0546 22.077 11.0776C21.5743 11.1007 21.1524 11.4834 21.1524 11.9999Z" fill="#606368"/>
<path d="M11.0767 17.7734C11.0767 17.8357 11.0767 17.8956 11.0767 17.9579C11.0721 18.0847 11.0975 18.2023 11.1551 18.313C11.192 18.4283 11.2565 18.5274 11.3465 18.6104C11.4295 18.7003 11.5286 18.7649 11.6439 18.8018C11.7546 18.8594 11.8722 18.8871 11.999 18.8802C12.0797 18.8687 12.1627 18.8571 12.2434 18.8479C12.4002 18.8041 12.5362 18.7257 12.6515 18.6104C12.6999 18.5482 12.7483 18.4859 12.7968 18.4236C12.8798 18.2807 12.9213 18.1239 12.9236 17.9579C12.9236 17.8956 12.9236 17.8357 12.9236 17.7734C12.9282 17.6466 12.9028 17.529 12.8452 17.4183C12.8083 17.3031 12.7437 17.2039 12.6538 17.1209C12.5708 17.031 12.4717 16.9664 12.3564 16.9295C12.2457 16.8719 12.1281 16.8442 12.0013 16.8511C11.9206 16.8627 11.8376 16.8742 11.7569 16.8834C11.6001 16.9272 11.4641 17.0056 11.3488 17.1209C11.3004 17.1832 11.2519 17.2454 11.2035 17.3077C11.1182 17.4529 11.0767 17.6074 11.0767 17.7734Z" fill="#606368"/>
<path d="M9.53466 9.42689C9.53466 9.27701 9.54388 9.12945 9.56463 8.97958C9.5531 9.06028 9.54158 9.14328 9.53235 9.22398C9.57386 8.92655 9.65225 8.63603 9.76754 8.35934C9.73756 8.43312 9.70528 8.5069 9.67531 8.58069C9.79059 8.31092 9.93816 8.05729 10.1157 7.82441C10.0673 7.88667 10.0189 7.94892 9.97044 8.01118C10.1503 7.7806 10.3555 7.5754 10.5861 7.39555C10.5238 7.44397 10.4616 7.49239 10.3993 7.54081C10.6322 7.36327 10.8858 7.2157 11.1556 7.10042C11.0818 7.13039 11.008 7.16267 10.9342 7.19265C11.2109 7.07736 11.5014 6.99897 11.7989 6.95746C11.7182 6.96899 11.6352 6.98052 11.5545 6.98974C11.8519 6.95285 12.1516 6.95285 12.4491 6.98974C12.3684 6.97822 12.2854 6.96669 12.2047 6.95746C12.5021 6.99897 12.7926 7.07506 13.0716 7.19034C12.9978 7.16037 12.9241 7.12809 12.8503 7.09811C13.12 7.2134 13.3737 7.36096 13.6066 7.5385C13.5443 7.49008 13.482 7.44166 13.4198 7.39324C13.6504 7.57309 13.8556 7.7783 14.0354 8.00887C13.987 7.94662 13.9386 7.88436 13.8902 7.82211C14.0677 8.05498 14.2153 8.30861 14.3305 8.57838C14.3006 8.5046 14.2683 8.43082 14.2383 8.35703C14.3536 8.63603 14.432 8.92424 14.4712 9.22398C14.4597 9.14328 14.4481 9.06028 14.4389 8.97958C14.4758 9.27701 14.4758 9.57676 14.4389 9.87189C14.4504 9.79119 14.462 9.70818 14.4712 9.62748C14.4297 9.92492 14.3513 10.2154 14.236 10.4944C14.266 10.4206 14.2983 10.3469 14.3282 10.2731C14.213 10.5429 14.0654 10.7965 13.8855 11.0317C13.934 10.9694 13.9824 10.9072 14.0308 10.8449C13.851 11.0755 13.6457 11.2807 13.4152 11.4605C13.4774 11.4121 13.5397 11.3637 13.6019 11.3153C13.3552 11.502 13.0924 11.6404 12.8134 11.7718C12.4791 11.9286 12.1632 12.1684 11.9142 12.4405C11.3815 13.0284 11.0795 13.7778 11.0772 14.5732C11.0772 14.7485 11.0772 14.9214 11.0772 15.0966C11.0772 15.5785 11.5014 16.042 11.9995 16.0189C12.4998 15.9959 12.9218 15.6131 12.9218 15.0966C12.9218 14.8176 12.9056 14.5317 12.9425 14.2551C12.931 14.3358 12.9194 14.4188 12.9102 14.4995C12.9379 14.315 12.9863 14.1375 13.0578 13.9645C13.0278 14.0383 12.9955 14.1121 12.9656 14.1859C13.0417 14.006 13.1408 13.84 13.2607 13.6832C13.2123 13.7455 13.1639 13.8077 13.1154 13.87C13.2307 13.7247 13.3621 13.5956 13.5074 13.4803C13.4452 13.5288 13.3829 13.5772 13.3206 13.6256C13.5443 13.455 13.7956 13.3558 14.0423 13.2267C14.3329 13.0745 14.598 12.8762 14.847 12.6641C15.2966 12.2814 15.6748 11.7764 15.91 11.2369C16.182 10.6143 16.3411 9.95259 16.3089 9.26779C16.2789 8.61066 16.1106 7.98581 15.8085 7.40247C15.2644 6.35337 14.236 5.55098 13.0947 5.25585C11.9095 4.95149 10.5676 5.1567 9.56463 5.87608C9.01126 6.27267 8.53167 6.7707 8.21118 7.3771C7.87454 8.01118 7.6947 8.71211 7.69239 9.42919C7.69009 9.91109 8.11895 10.3745 8.61468 10.3515C9.11502 10.3284 9.53235 9.94567 9.53466 9.42689Z" fill="#606368"/>
</svg>
