<svg width="20" height="20" viewBox="0 0 20 20" fill="none" xmlns="http://www.w3.org/2000/svg">
<path d="M17.5797 1.87988H10.5997C9.53969 1.87988 8.67969 2.73988 8.67969 3.79988V10.7999C8.67969 10.9199 8.69969 11.0399 8.71969 11.1599H10.4997C11.1797 11.1599 11.8197 11.4399 12.2797 11.9399C12.4997 12.1599 12.6597 12.4199 12.7597 12.7199H17.5797C18.6397 12.7199 19.4997 11.8599 19.4997 10.7999V3.79988C19.4997 2.71988 18.6397 1.87988 17.5797 1.87988ZM14.7397 10.2599C14.7397 10.4599 14.5797 10.6199 14.3797 10.6199H13.6597C13.4597 10.6199 13.2997 10.4599 13.2997 10.2599V9.63989C13.2997 9.43989 13.4597 9.27988 13.6597 9.27988H14.3797C14.5797 9.27988 14.7397 9.43989 14.7397 9.63989V10.2599ZM14.9797 7.77988C14.6797 8.03988 14.6797 8.05988 14.6797 8.19988V8.31988C14.6797 8.51988 14.5197 8.67988 14.3197 8.67988H13.7397C13.5397 8.67988 13.3797 8.51988 13.3797 8.31988V8.19988C13.3797 7.47988 13.7397 7.13988 14.1597 6.77988C14.4197 6.57988 14.8797 6.19988 14.8797 5.87988C14.8797 5.35988 14.5797 5.25988 14.1397 5.25988C13.3397 5.25988 13.3197 5.79988 13.3197 5.85988V5.89988C13.3197 6.09988 13.1597 6.25988 12.9597 6.25988H12.3597C12.1597 6.25988 11.9997 6.09988 11.9997 5.89988V5.85988C11.9997 5.11988 12.5797 3.95988 14.1197 3.95988C15.6197 3.95988 16.1597 4.95988 16.1597 5.87988C16.1797 6.79988 15.3997 7.41988 14.9797 7.77988Z" fill="#606368"/>
<path d="M10.4995 12.3402H8.01951C8.01951 12.3402 5.65951 10.4402 5.43951 10.2802C5.21951 10.1202 4.83951 9.94019 4.43951 9.94019H2.05951C1.19951 9.94019 0.499512 10.6402 0.499512 11.5002V17.5202C0.499512 17.8602 0.779512 18.1402 1.11951 18.1402H5.39951C5.73951 18.1402 6.01951 17.8602 6.01951 17.5202L5.99951 13.9202L6.79951 14.5602C7.01951 14.7402 7.29951 14.8402 7.57951 14.8402H10.4595C11.1195 14.8402 11.6995 14.3402 11.7395 13.6802C11.7995 12.9402 11.2195 12.3402 10.4995 12.3402Z" fill="#606368"/>
<path d="M3.27857 9.17995C4.79183 9.17995 6.01857 7.95321 6.01857 6.43995C6.01857 4.92669 4.79183 3.69995 3.27857 3.69995C1.76531 3.69995 0.538574 4.92669 0.538574 6.43995C0.538574 7.95321 1.76531 9.17995 3.27857 9.17995Z" fill="#606368"/>
</svg>
