<svg width="19" height="22" viewBox="0 0 19 22" fill="none" xmlns="http://www.w3.org/2000/svg">
<path d="M9.14634 13.2927C8.71219 13.2927 8.28778 13.1639 7.9268 12.9227C7.56581 12.6815 7.28446 12.3387 7.11831 11.9376C6.95217 11.5365 6.9087 11.0951 6.9934 10.6693C7.0781 10.2435 7.28716 9.85237 7.59416 9.54537C7.90115 9.23838 8.29228 9.02932 8.71809 8.94462C9.14391 8.85992 9.58527 8.90339 9.98638 9.06953C10.3875 9.23568 10.7303 9.51703 10.9715 9.87802C11.2127 10.239 11.3415 10.6634 11.3415 11.0976C11.3408 11.6795 11.1093 12.2375 10.6978 12.649C10.2863 13.0605 9.72831 13.292 9.14634 13.2927ZM9.58537 13.7317H8.70732C7.42696 13.7332 6.19946 14.2424 5.29411 15.1478C4.38876 16.0531 3.8795 17.2806 3.87805 18.561C3.87805 18.6774 3.9243 18.7891 4.00664 18.8714C4.08897 18.9537 4.20064 19 4.31707 19H13.9756C14.092 19 14.2037 18.9537 14.286 18.8714C14.3684 18.7891 14.4146 18.6774 14.4146 18.561C14.4132 17.2806 13.9039 16.0531 12.9986 15.1478C12.0932 14.2424 10.8657 13.7332 9.58537 13.7317ZM15.2927 2.31707V5.39024C15.2923 5.73944 15.1534 6.07422 14.9065 6.32113C14.6596 6.56805 14.3248 6.70693 13.9756 6.70732H10.2594L9.51161 7.82889C9.47152 7.88902 9.4172 7.93832 9.35348 7.97242C9.28976 8.00652 9.21861 8.02436 9.14634 8.02436C9.07407 8.02436 9.00292 8.00652 8.9392 7.97242C8.87548 7.93832 8.82117 7.88902 8.78107 7.82889L8.03333 6.70732H4.31707C3.96788 6.70693 3.6331 6.56805 3.38619 6.32113C3.13927 6.07422 3.00038 5.73944 3 5.39024V2.31707C3.00038 1.96788 3.13927 1.6331 3.38619 1.38619C3.6331 1.13927 3.96788 1.00038 4.31707 1H13.9756C14.3248 1.00038 14.6596 1.13927 14.9065 1.38619C15.1534 1.6331 15.2923 1.96788 15.2927 2.31707ZM9.58537 4.5122C9.58537 4.39576 9.53911 4.28409 9.45678 4.20176C9.37445 4.11943 9.26278 4.07317 9.14634 4.07317H5.19512C5.07869 4.07317 4.96702 4.11943 4.88468 4.20176C4.80235 4.28409 4.7561 4.39576 4.7561 4.5122C4.7561 4.62863 4.80235 4.7403 4.88468 4.82263C4.96702 4.90497 5.07869 4.95122 5.19512 4.95122H9.14634C9.26278 4.95122 9.37445 4.90497 9.45678 4.82263C9.53911 4.7403 9.58537 4.62863 9.58537 4.5122ZM13.5366 3.19512C13.5366 3.07869 13.4903 2.96702 13.408 2.88468C13.3257 2.80235 13.214 2.7561 13.0976 2.7561H5.19512C5.07869 2.7561 4.96702 2.80235 4.88468 2.88468C4.80235 2.96702 4.7561 3.07869 4.7561 3.19512C4.7561 3.31156 4.80235 3.42323 4.88468 3.50556C4.96702 3.58789 5.07869 3.63415 5.19512 3.63415H13.0976C13.214 3.63415 13.3257 3.58789 13.408 3.50556C13.4903 3.42323 13.5366 3.31156 13.5366 3.19512Z" fill="#606368"/>
</svg>
