<svg width="32" height="32" viewBox="0 0 32 32" fill="none" xmlns="http://www.w3.org/2000/svg">
<rect width="32" height="32" rx="6" fill="#DBDCE0"/>
<path d="M23.5797 7.87988H16.5997C15.5397 7.87988 14.6797 8.73988 14.6797 9.79988V16.7999C14.6797 16.9199 14.6997 17.0399 14.7197 17.1599H16.4997C17.1797 17.1599 17.8197 17.4399 18.2797 17.9399C18.4997 18.1599 18.6597 18.4199 18.7597 18.7199H23.5797C24.6397 18.7199 25.4997 17.8599 25.4997 16.7999V9.79988C25.4997 8.71988 24.6397 7.87988 23.5797 7.87988ZM20.7397 16.2599C20.7397 16.4599 20.5797 16.6199 20.3797 16.6199H19.6597C19.4597 16.6199 19.2997 16.4599 19.2997 16.2599V15.6399C19.2997 15.4399 19.4597 15.2799 19.6597 15.2799H20.3797C20.5797 15.2799 20.7397 15.4399 20.7397 15.6399V16.2599ZM20.9797 13.7799C20.6797 14.0399 20.6797 14.0599 20.6797 14.1999V14.3199C20.6797 14.5199 20.5197 14.6799 20.3197 14.6799H19.7397C19.5397 14.6799 19.3797 14.5199 19.3797 14.3199V14.1999C19.3797 13.4799 19.7397 13.1399 20.1597 12.7799C20.4197 12.5799 20.8797 12.1999 20.8797 11.8799C20.8797 11.3599 20.5797 11.2599 20.1397 11.2599C19.3397 11.2599 19.3197 11.7999 19.3197 11.8599V11.8999C19.3197 12.0999 19.1597 12.2599 18.9597 12.2599H18.3597C18.1597 12.2599 17.9997 12.0999 17.9997 11.8999V11.8599C17.9997 11.1199 18.5797 9.95988 20.1197 9.95988C21.6197 9.95988 22.1597 10.9599 22.1597 11.8799C22.1797 12.7999 21.3997 13.4199 20.9797 13.7799Z" fill="#606368"/>
<path d="M16.5 18.3404H14.02C14.02 18.3404 11.66 16.4404 11.44 16.2804C11.22 16.1204 10.84 15.9404 10.44 15.9404H8.06C7.2 15.9404 6.5 16.6404 6.5 17.5004V23.5204C6.5 23.8604 6.78 24.1404 7.12 24.1404H11.4C11.74 24.1404 12.02 23.8604 12.02 23.5204L12 19.9204L12.8 20.5604C13.02 20.7404 13.3 20.8404 13.58 20.8404H16.46C17.12 20.8404 17.7 20.3404 17.74 19.6804C17.8 18.9404 17.22 18.3404 16.5 18.3404Z" fill="#606368"/>
<path d="M9.27906 15.1802C10.7923 15.1802 12.0191 13.9535 12.0191 12.4402C12.0191 10.9269 10.7923 9.7002 9.27906 9.7002C7.7658 9.7002 6.53906 10.9269 6.53906 12.4402C6.53906 13.9535 7.7658 15.1802 9.27906 15.1802Z" fill="#606368"/>
</svg>
