<svg width="600" height="501" viewBox="0 0 600 501" fill="none" xmlns="http://www.w3.org/2000/svg">
<path d="M524.274 141.563H415.974C410.46 141.563 405.99 146.033 405.99 151.547V306.413C405.99 311.927 410.46 316.397 415.974 316.397H524.274C529.788 316.397 534.258 311.927 534.258 306.413V151.547C534.258 146.033 529.788 141.563 524.274 141.563Z" stroke="#CCDDE2" stroke-width="4.83" stroke-miterlimit="10"/>
<path d="M519.6 159.576H421.962C419.205 159.576 416.97 161.811 416.97 164.568V185.334C416.97 188.091 419.205 190.326 421.962 190.326H519.6C522.357 190.326 524.592 188.091 524.592 185.334V164.568C524.592 161.811 522.357 159.576 519.6 159.576Z" stroke="#CCDDE2" stroke-width="4.83" stroke-miterlimit="10"/>
<path d="M470.124 172.53C471.881 172.53 473.304 171.106 473.304 169.35C473.304 167.594 471.881 166.17 470.124 166.17C468.368 166.17 466.944 167.594 466.944 169.35C466.944 171.106 468.368 172.53 470.124 172.53Z" fill="#D7E8F0"/>
<path d="M461.238 183.738C461.238 181.381 462.174 179.121 463.841 177.454C465.507 175.788 467.768 174.852 470.124 174.852C472.481 174.852 474.741 175.788 476.408 177.454C478.074 179.121 479.01 181.381 479.01 183.738H461.238Z" fill="#D7E8F0"/>
<path d="M470.772 223.284C467.385 223.285 464.073 224.291 461.257 226.174C458.441 228.057 456.246 230.733 454.951 233.863C453.655 236.993 453.317 240.437 453.978 243.76C454.64 247.082 456.272 250.134 458.668 252.529C461.064 254.924 464.116 256.555 467.439 257.215C470.761 257.876 474.205 257.536 477.335 256.24C480.465 254.943 483.14 252.747 485.022 249.93C486.904 247.114 487.908 243.802 487.908 240.414C487.908 238.164 487.465 235.936 486.604 233.857C485.743 231.779 484.48 229.89 482.889 228.299C481.298 226.709 479.409 225.447 477.33 224.586C475.251 223.726 473.022 223.283 470.772 223.284V223.284ZM470.772 253.41C470.129 253.379 469.523 253.101 469.079 252.635C468.635 252.168 468.387 251.549 468.387 250.905C468.387 250.261 468.635 249.642 469.079 249.176C469.523 248.709 470.129 248.432 470.772 248.4C471.416 248.432 472.022 248.709 472.466 249.176C472.91 249.642 473.158 250.261 473.158 250.905C473.158 251.549 472.91 252.168 472.466 252.635C472.022 253.101 471.416 253.379 470.772 253.41V253.41ZM473.934 234.144C473.406 237.858 472.962 241.758 471.852 245.37C471.588 246.24 469.956 246.24 469.692 245.37C468.911 242.655 468.31 239.891 467.892 237.096C467.55 235.062 466.362 231.768 467.496 229.794C468.498 227.994 471.318 227.814 472.956 228.738C474.966 229.872 474.174 232.296 473.934 234.144Z" fill="#D7E8F0"/>
<path d="M283.338 176.274C277.332 174.483 270.93 174.514 264.942 176.362C258.953 178.209 253.647 181.791 249.694 186.655C245.742 191.518 243.32 197.445 242.736 203.685C242.151 209.924 243.43 216.197 246.411 221.71C249.392 227.223 253.941 231.728 259.482 234.656C265.024 237.583 271.309 238.802 277.543 238.157C283.777 237.513 289.679 235.034 294.504 231.034C299.329 227.035 302.86 221.694 304.65 215.688C305.839 211.701 306.231 207.519 305.803 203.38C305.376 199.241 304.137 195.227 302.158 191.567C300.179 187.907 297.498 184.672 294.269 182.049C291.04 179.425 287.326 177.463 283.338 176.274V176.274ZM267.42 229.674C266.276 229.297 265.323 228.488 264.766 227.419C264.208 226.351 264.089 225.107 264.433 223.952C264.778 222.797 265.558 221.822 266.61 221.234C267.662 220.645 268.902 220.49 270.066 220.8C270.665 220.96 271.225 221.238 271.714 221.618C272.204 221.999 272.612 222.473 272.914 223.014C273.217 223.555 273.408 224.151 273.476 224.766C273.544 225.382 273.488 226.006 273.311 226.599C273.134 227.193 272.839 227.745 272.445 228.223C272.051 228.701 271.565 229.095 271.015 229.382C270.466 229.669 269.865 229.842 269.247 229.893C268.63 229.943 268.008 229.869 267.42 229.674V229.674ZM283.2 197.19C280.302 203.496 277.446 210.174 273.6 215.988C272.676 217.392 269.778 216.528 269.772 214.848C269.821 209.627 270.222 204.415 270.972 199.248C271.44 195.474 271.074 189.006 274.128 186.102C276.84 183.504 281.928 184.62 284.358 187.116C287.28 190.164 284.604 194.046 283.2 197.19Z" fill="#3FBDF1"/>
<path d="M194.838 246.432C192.641 248.668 191.156 251.505 190.571 254.585C189.986 257.665 190.328 260.849 191.553 263.735C192.778 266.621 194.83 269.079 197.452 270.798C200.073 272.517 203.146 273.42 206.281 273.393C209.416 273.366 212.472 272.411 215.064 270.647C217.655 268.883 219.666 266.39 220.841 263.484C222.016 260.578 222.303 257.388 221.666 254.319C221.028 251.249 219.495 248.438 217.26 246.24C214.261 243.292 210.214 241.657 206.009 241.693C201.805 241.729 197.786 243.433 194.838 246.432V246.432ZM214.722 265.974C214.509 266.191 214.255 266.364 213.975 266.483C213.695 266.602 213.394 266.664 213.09 266.667C212.786 266.67 212.484 266.613 212.202 266.499C211.92 266.385 211.663 266.217 211.446 266.004C211.229 265.791 211.056 265.537 210.937 265.257C210.818 264.977 210.755 264.676 210.753 264.372C210.75 264.068 210.807 263.766 210.921 263.484C211.035 263.202 211.203 262.945 211.416 262.728C211.846 262.289 212.433 262.04 213.048 262.034C213.662 262.029 214.254 262.267 214.692 262.698C215.13 263.128 215.38 263.715 215.385 264.329C215.391 264.944 215.152 265.535 214.722 265.974V265.974ZM204.06 251.4C206.166 254.16 208.452 256.986 210.114 260.058C210.516 260.796 209.46 261.858 208.716 261.486C206.425 260.235 204.22 258.832 202.116 257.286C200.55 256.2 197.61 254.844 197.04 252.81C196.524 251.01 198.24 249.006 199.884 248.532C201.906 247.944 202.992 250.038 204.06 251.4Z" fill="#3FBDF1"/>
<path d="M427.734 204.054H511.416" stroke="#CCDDE2" stroke-width="4.83" stroke-miterlimit="10"/>
<path d="M427.734 212.292H511.416" stroke="#CCDDE2" stroke-width="4.83" stroke-miterlimit="10"/>
<path d="M427.734 265.332H511.416" stroke="#CCDDE2" stroke-width="4.83" stroke-miterlimit="10"/>
<path d="M447.168 273.126H491.976" stroke="#CCDDE2" stroke-width="4.83" stroke-miterlimit="10"/>
<path d="M534.264 254.52C541.644 263.796 548.664 275.292 555.012 289.458C593.664 375.774 545.352 419.58 545.352 419.58" stroke="#9F9F9F" stroke-width="4.83" stroke-miterlimit="10"/>
<path d="M130.554 322.962C130.554 322.962 73.2001 257.904 144.72 225.69C216.24 193.476 230.4 189 225.24 155.49C220.08 121.98 260.64 87.8583 324.426 110.406C388.212 132.954 389.49 175.446 384.966 208.296C382.398 227.022 393.024 231.522 405.966 230.58" stroke="#9F9F9F" stroke-width="4.83" stroke-miterlimit="10"/>
<path d="M530.22 447.654C530.074 451.246 529.145 454.762 527.496 457.956C527.431 458.115 527.355 458.27 527.268 458.418C524.376 463.614 520.33 468.076 515.442 471.462L515.268 471.582C510.855 474.534 505.892 476.565 500.676 477.552C500.676 477.6 500.676 477.552 500.676 477.552H556.2C556.2 477.552 548.772 371.622 480.504 320.082C414.438 270.21 352.584 294.246 348.66 295.854C349.875 299.286 350.419 302.92 350.262 306.558C350.262 306.558 355.23 309.144 356.058 318.402C356.886 327.66 358.614 353.4 342 358.248C342 358.248 327.084 357.882 323.142 352.158C319.2 346.434 318.252 347.598 316.704 349.05C315.504 350.148 308.262 354.072 304.92 355.872C305.342 355.893 305.762 355.951 306.174 356.046C306.174 356.046 308.088 372.198 331.506 397.512C332.299 398.348 333.048 399.226 333.75 400.14C337.286 403.232 341.26 406.388 345.672 409.608L372.396 429.162C372.999 429.675 373.714 430.039 374.484 430.224C375.979 430.601 377.542 430.616 379.044 430.266C382.152 429.666 403.374 427.5 417.108 426.132C417.42 426.132 417.75 426.072 418.056 426.036L419.856 425.862C420.144 425.862 420.456 425.802 420.708 425.784L422.328 425.628C423.12 425.55 423.834 425.472 424.494 425.418L426.294 425.244C427.884 425.088 428.826 424.992 428.904 424.992C432.176 424.9 435.437 424.583 438.666 424.044C441.756 423.444 444.576 422.478 445.308 420.876C445.447 420.538 445.498 420.171 445.458 419.808V419.808C445.292 418.789 444.866 417.83 444.222 417.024C441.402 413.238 434.85 409.992 434.37 409.758C434.356 409.754 434.342 409.754 434.328 409.758L434.196 409.662L395.196 379.362H395.154C395.154 379.362 401.028 316.698 454.554 332.118C454.554 332.118 454.806 332.292 455.268 332.676C457.356 334.284 463.926 339.612 473.586 349.566C473.838 349.836 474.108 350.106 474.378 350.394C475.404 351.438 476.412 352.524 477.414 353.586C484.194 360.834 492.216 370.068 501.066 381.582L501.126 381.642C511.266 394.842 518.574 406.938 523.326 417.642V417.678C528.468 429.312 530.634 439.278 530.208 447.228C530.221 447.37 530.225 447.512 530.22 447.654V447.654ZM368.778 339.948C367.194 321.69 376.08 315.078 376.578 314.712C363.942 337.572 387.378 372.612 388.2 373.968C387.528 373.404 370.362 358.2 368.778 339.948Z" fill="#353642"/>
<path d="M335.215 336.366C334.557 336.85 333.872 337.295 333.163 337.698L329.047 330.498C338.539 325.644 341.203 317.088 337.027 312.39C335.859 311.105 334.354 310.174 332.683 309.702C328.483 308.43 325.573 310.302 323.599 312.816C321.987 315.002 320.806 317.474 320.119 320.1L318.115 296.988L317.959 295.188C317.959 295.188 313.591 293.022 301.759 294.954C289.927 296.886 287.749 303.42 282.667 300.522C277.585 297.624 274.705 297.858 274.705 297.858C273.259 303.168 269.389 303.168 269.389 303.168C268.472 303.058 267.571 302.838 266.707 302.514C261.217 297.468 259.729 288.714 259.729 288.714C265.489 288 265.933 282.456 265.273 277.914C268.465 279.81 272.965 279.942 279.283 275.886C297.409 264.294 315.997 270.57 322.531 271.536C325.447 271.962 328.639 270.936 331.285 269.736C331.626 270.349 332.102 270.876 332.677 271.278C337.087 274.351 340.725 278.405 343.303 283.122C360.313 314.916 341.665 331.8 335.215 336.366Z" fill="#3FBDF1"/>
<path d="M267.312 477.564H274.152C277.078 477.561 279.883 476.398 281.951 474.329C284.02 472.26 285.183 469.456 285.186 466.53V458.874C285.186 458.176 285.049 457.485 284.782 456.841C284.514 456.196 284.123 455.611 283.629 455.117C283.135 454.624 282.549 454.233 281.904 453.967C281.259 453.7 280.568 453.564 279.87 453.564H238.962C238.964 455.194 238.644 456.808 238.021 458.314C237.398 459.819 236.484 461.187 235.331 462.339C234.179 463.491 232.81 464.405 231.304 465.027C229.798 465.65 228.184 465.969 226.554 465.966H78.7324C78.734 469.042 79.9564 471.991 82.1312 474.166C84.3059 476.34 87.2549 477.563 90.3304 477.564H290.73C290.992 477.565 291.252 477.514 291.494 477.414C291.736 477.314 291.956 477.168 292.141 476.983C292.326 476.797 292.473 476.578 292.572 476.336C292.672 476.094 292.723 475.834 292.722 475.572V463.146C292.722 460.732 293.681 458.417 295.388 456.71C297.095 455.003 299.41 454.044 301.824 454.044C304.238 454.044 306.553 455.003 308.26 456.71C309.967 458.417 310.926 460.732 310.926 463.146V475.572C310.926 475.834 310.976 476.093 311.076 476.334C311.175 476.576 311.321 476.795 311.506 476.98C311.69 477.166 311.91 477.312 312.151 477.413C312.392 477.513 312.651 477.564 312.912 477.564H556.2C556.2 477.564 548.772 371.61 480.504 320.076C414.438 270.204 352.584 294.24 348.66 295.848L348.468 295.92" stroke="black" stroke-width="4.83" stroke-miterlimit="10"/>
<path d="M280.254 321.779C280.251 322.446 280.052 323.096 279.68 323.649C279.308 324.202 278.781 324.632 278.165 324.886C277.549 325.139 276.872 325.205 276.219 325.074C275.566 324.943 274.966 324.621 274.495 324.15C274.025 323.678 273.704 323.078 273.574 322.425C273.445 321.771 273.511 321.094 273.766 320.478C274.021 319.863 274.452 319.337 275.005 318.966C275.559 318.595 276.21 318.397 276.876 318.396C277.137 318.397 277.396 318.429 277.65 318.492C277.3 318.602 276.996 318.821 276.78 319.116C276.564 319.412 276.448 319.769 276.45 320.136C276.448 320.365 276.492 320.593 276.579 320.806C276.665 321.019 276.793 321.212 276.955 321.376C277.116 321.539 277.309 321.669 277.521 321.758C277.733 321.847 277.96 321.893 278.19 321.893C278.61 321.885 279.014 321.73 279.332 321.455C279.65 321.18 279.861 320.802 279.93 320.387C280.136 320.823 280.247 321.298 280.254 321.779Z" fill="black"/>
<path d="M303.66 322.722C303.661 323.391 303.463 324.046 303.092 324.604C302.721 325.161 302.193 325.595 301.575 325.853C300.957 326.11 300.276 326.177 299.619 326.048C298.962 325.918 298.359 325.596 297.885 325.123C297.411 324.65 297.088 324.047 296.957 323.39C296.826 322.734 296.893 322.053 297.149 321.434C297.405 320.816 297.838 320.287 298.395 319.915C298.952 319.542 299.606 319.344 300.276 319.344C300.437 319.343 300.598 319.361 300.756 319.398C300.456 319.536 300.203 319.756 300.025 320.034C299.847 320.312 299.753 320.634 299.754 320.964C299.733 321.425 299.896 321.876 300.208 322.217C300.52 322.558 300.954 322.761 301.416 322.782C301.877 322.802 302.328 322.639 302.669 322.327C303.01 322.016 303.213 321.581 303.234 321.12C303.511 321.608 303.657 322.16 303.66 322.722Z" fill="black"/>
<path d="M330.654 264.984C330.264 267.612 330.75 269.916 332.682 271.284C337.093 274.357 340.73 278.411 343.308 283.128C363.6 321.042 333.162 337.728 333.162 337.728L329.046 330.528C340.896 324.48 342.108 312.636 332.682 309.732C323.256 306.828 320.118 320.13 320.118 320.13L317.958 295.2C317.958 295.2 313.59 293.034 301.758 294.966C289.926 296.898 287.748 303.432 282.666 300.534C277.584 297.636 274.704 297.87 274.704 297.87C273.258 303.18 269.388 303.18 269.388 303.18C258.048 301.734 255.384 286.044 255.384 286.044C261.138 285.324 261.582 279.78 260.928 275.244C264.114 277.14 268.62 277.278 274.938 273.216C293.064 261.624 311.652 267.906 318.18 268.872C322.692 269.526 327.87 266.766 330.654 264.984Z" stroke="black" stroke-width="4.83" stroke-linecap="round" stroke-linejoin="round"/>
<path d="M341.118 453L345.6 451.2L348.96 460.266L348.432 476.718L343.89 477.54L326.652 476.796C326.652 476.796 327.852 466.764 331.518 461.994C335.184 457.224 341.118 453 341.118 453Z" fill="#3FBDF1"/>
<path d="M262.632 308.724C262.632 308.724 267.222 300.486 276.882 301.344" stroke="black" stroke-width="4.83" stroke-miterlimit="10"/>
<path d="M295.8 301.344C295.8 301.344 306.84 298.866 310.704 305.004" stroke="black" stroke-width="4.83" stroke-miterlimit="10"/>
<path d="M312.906 338.64C312.906 338.64 306.306 334.818 301.476 341.244" stroke="black" stroke-width="4.83" stroke-miterlimit="10"/>
<path d="M271.2 302.664C271.2 302.664 266.502 357.93 301.536 356.91C307.536 356.736 313.5 352.794 319.2 346.452" stroke="black" stroke-width="4.83" stroke-miterlimit="10"/>
<path d="M333.162 351.48L319.2 346.452C319.2 346.452 322.662 357.516 339.81 358.362C356.958 359.208 362.712 319.854 350.112 304.02" stroke="black" stroke-width="4.83" stroke-linejoin="round"/>
<path d="M387.75 462.348C387.75 462.348 374.952 472.734 383.646 477.564" stroke="black" stroke-width="4.83" stroke-miterlimit="10"/>
<path d="M377.85 452.682C377.85 452.682 355.65 465.246 374.712 477.564" stroke="black" stroke-width="4.83" stroke-miterlimit="10"/>
<path d="M370.362 443.021C370.362 443.021 340.896 456.821 363.6 477.563" stroke="black" stroke-width="4.83" stroke-miterlimit="10"/>
<path d="M494.274 477.564C494.274 477.564 530.022 477.564 530.502 443.022C530.982 408.48 461.184 321.744 416.016 309.678C370.848 297.612 368.91 330.678 368.91 332.034C368.91 333.39 366.258 347.634 377.85 362.832C386.802 374.58 426.342 403.908 443.886 416.652C444.53 417.121 445.017 417.775 445.28 418.527C445.544 419.279 445.573 420.093 445.362 420.862C445.152 421.63 444.713 422.317 444.103 422.829C443.493 423.342 442.741 423.657 441.948 423.732L364.356 431.184H364.308C363.576 431.316 336.192 436.368 327.852 444.948C327.852 444.948 323.178 448.41 325.596 453.726C328.014 459.042 335.442 457.29 335.646 457.092" stroke="black" stroke-width="4.83" stroke-miterlimit="10"/>
<path opacity="0.26" d="M300.282 328.998C305.617 328.998 309.942 324.673 309.942 319.338C309.942 314.003 305.617 309.678 300.282 309.678C294.947 309.678 290.622 314.003 290.622 319.338C290.622 324.673 294.947 328.998 300.282 328.998Z" fill="white"/>
<path opacity="0.26" d="M275.766 328.044C281.101 328.044 285.426 323.719 285.426 318.384C285.426 313.049 281.101 308.724 275.766 308.724C270.431 308.724 266.106 313.049 266.106 318.384C266.106 323.719 270.431 328.044 275.766 328.044Z" fill="white"/>
<path d="M359.268 451.476C355.872 450.528 350.322 449.676 344.604 451.512C341.807 452.413 339.227 453.882 337.025 455.826C336.545 456.246 336.084 456.672 335.64 457.098C334.682 458.037 333.779 459.028 332.933 460.068C332.822 460.206 332.664 460.298 332.489 460.326C330.359 460.62 316.337 462.84 316.409 469.926C316.475 476.292 323.447 477.336 325.847 477.504C325.946 477.513 326.046 477.502 326.14 477.471C326.235 477.439 326.322 477.389 326.395 477.322C326.469 477.256 326.529 477.175 326.569 477.084C326.61 476.994 326.632 476.896 326.633 476.796C326.633 474.528 327.149 467.418 332.759 460.266" stroke="black" stroke-width="4.83" stroke-miterlimit="10"/>
<path d="M232.932 401.466C234.576 414.72 224.274 420.714 213.012 421.602" stroke="black" stroke-width="4.83" stroke-miterlimit="10"/>
<path d="M196.644 418.836C192.35 416.516 188.872 412.934 186.68 408.572C184.489 404.211 183.69 399.282 184.392 394.452C186.192 381.702 196.992 371.922 207.564 365.718C229.764 352.692 279.792 362.118 288.198 364.038C294.642 365.514 300.03 360.474 302.214 358.038C302.307 357.935 302.427 357.86 302.561 357.823C302.695 357.786 302.837 357.788 302.969 357.829C303.102 357.87 303.22 357.949 303.309 358.055C303.399 358.161 303.456 358.29 303.474 358.428C308.088 385.428 361.674 422.076 374.07 430.278" stroke="black" stroke-width="4.83" stroke-miterlimit="10"/>
<path d="M246.45 392.298L228.708 403.308C227.651 403.966 226.468 404.396 225.234 404.568C224.001 404.741 222.745 404.654 221.547 404.311C220.35 403.968 219.237 403.378 218.282 402.579C217.327 401.78 216.549 400.79 216 399.672V399.672C215.011 397.664 214.815 395.357 215.451 393.21C216.087 391.064 217.509 389.236 219.432 388.092L246.432 372.006" stroke="black" stroke-width="4.83" stroke-miterlimit="10"/>
<path d="M300.282 328.998C305.617 328.998 309.942 324.673 309.942 319.338C309.942 314.003 305.617 309.678 300.282 309.678C294.947 309.678 290.622 314.003 290.622 319.338C290.622 324.673 294.947 328.998 300.282 328.998Z" stroke="black" stroke-width="4.83" stroke-miterlimit="10"/>
<path d="M275.766 326.598C280.302 326.598 283.98 322.92 283.98 318.384C283.98 313.847 280.302 310.17 275.766 310.17C271.229 310.17 267.552 313.847 267.552 318.384C267.552 322.92 271.229 326.598 275.766 326.598Z" stroke="white" stroke-width="4.83" stroke-miterlimit="10"/>
<path d="M275.766 328.044C281.101 328.044 285.426 323.719 285.426 318.384C285.426 313.049 281.101 308.724 275.766 308.724C270.431 308.724 266.106 313.049 266.106 318.384C266.106 323.719 270.431 328.044 275.766 328.044Z" stroke="black" stroke-width="4.83" stroke-miterlimit="10"/>
<path d="M290.67 318.384H285.426" stroke="black" stroke-width="4.83" stroke-miterlimit="10"/>
<path d="M290.67 332.034H287.214C286.997 332.034 286.782 331.986 286.585 331.894C286.389 331.802 286.215 331.667 286.076 331.5C285.937 331.332 285.837 331.136 285.783 330.926C285.729 330.715 285.722 330.495 285.762 330.282L288.048 318.384" stroke="black" stroke-width="4.83" stroke-miterlimit="10"/>
<path d="M221.328 365.004C221.328 365.004 209.01 367.662 204.666 386.262C202.026 397.554 198.402 411.96 195.966 421.536C195.653 422.764 195.626 424.048 195.885 425.289C196.144 426.529 196.683 427.695 197.461 428.695C198.238 429.696 199.235 430.506 200.373 431.063C201.512 431.62 202.762 431.91 204.03 431.91V431.91C205.923 431.91 207.759 431.266 209.236 430.082C210.712 428.899 211.742 427.247 212.154 425.4L217.308 402.276" stroke="black" stroke-width="4.83" stroke-miterlimit="10"/>
<path d="M232.59 408.48C232.59 408.48 245.52 400.752 270.99 408.48C296.46 416.208 325.74 421.452 335.4 400.956" stroke="black" stroke-width="4.83" stroke-miterlimit="10"/>
<path d="M344.61 451.512C344.61 451.512 353.61 461.784 348.138 477.564" stroke="black" stroke-width="4.83" stroke-miterlimit="10"/>
<path d="M47.208 323.778H189.408C193.988 323.772 198.437 325.308 202.039 328.138C205.64 330.967 208.184 334.927 209.262 339.378L231.9 433.134C232.511 435.664 232.54 438.3 231.985 440.842C231.429 443.385 230.305 445.768 228.695 447.813C227.085 449.858 225.032 451.511 222.691 452.648C220.349 453.784 217.781 454.374 215.178 454.374H73.344C68.7726 454.379 64.3323 452.847 60.7353 450.026C57.1383 447.205 54.5931 443.257 53.508 438.816L30.504 345.078C29.8829 342.546 29.8455 339.905 30.3948 337.356C30.9441 334.808 32.0657 332.417 33.6748 330.365C35.2838 328.313 37.3383 326.654 39.6828 325.513C42.0273 324.372 44.6006 323.779 47.208 323.778V323.778Z" fill="#3FBDF1"/>
<path d="M52.3863 327.811H185.802C190.1 327.816 194.272 329.264 197.65 331.921C201.027 334.579 203.416 338.293 204.432 342.469L225.684 430.423C226.258 432.796 226.286 435.268 225.765 437.653C225.245 440.039 224.19 442.275 222.68 444.193C221.17 446.112 219.244 447.663 217.048 448.729C214.851 449.795 212.442 450.349 210 450.349H76.9083C72.6236 450.34 68.4651 448.898 65.0946 446.252C61.7241 443.607 59.3352 439.91 58.3083 435.751L36.7083 347.791C36.125 345.414 36.0899 342.937 36.6055 340.545C37.1211 338.153 38.1739 335.91 39.6844 333.985C41.1948 332.06 43.1233 330.504 45.3239 329.434C47.5244 328.364 49.9395 327.809 52.3863 327.811V327.811Z" fill="#3FBDF1"/>
<path d="M47.208 323.778H189.408C193.988 323.772 198.437 325.308 202.039 328.138C205.64 330.967 208.184 334.927 209.262 339.378L231.9 433.134C232.511 435.664 232.54 438.3 231.985 440.842C231.429 443.385 230.305 445.768 228.695 447.813C227.085 449.858 225.032 451.511 222.691 452.648C220.349 453.784 217.781 454.374 215.178 454.374H73.344C68.7726 454.379 64.3323 452.847 60.7353 450.026C57.1383 447.205 54.5931 443.257 53.508 438.816L30.504 345.078C29.8829 342.546 29.8455 339.905 30.3948 337.356C30.9441 334.808 32.0657 332.417 33.6748 330.365C35.2838 328.313 37.3383 326.654 39.6828 325.513C42.0273 324.372 44.6006 323.779 47.208 323.778V323.778Z" stroke="black" stroke-width="4.83" stroke-miterlimit="10"/>
<path d="M113.808 386.226L105.33 346.704C105.154 345.868 104.696 345.118 104.033 344.58C103.37 344.041 102.542 343.747 101.688 343.746H59.7359C59.1716 343.748 58.615 343.877 58.1082 344.126C57.6015 344.374 57.1579 344.734 56.8111 345.18C56.4642 345.625 56.2231 346.143 56.1062 346.695C55.9892 347.247 55.9994 347.819 56.1359 348.366L65.9459 388.35C66.0676 388.908 66.3276 389.425 66.7019 389.856C67.0378 390.283 67.466 390.628 67.9544 390.866C68.4428 391.104 68.9787 391.229 69.5219 391.23H69.5999L110.202 390.75C110.75 390.742 111.29 390.613 111.782 390.373C112.275 390.132 112.709 389.786 113.052 389.358C113.402 388.924 113.651 388.419 113.782 387.877C113.912 387.335 113.921 386.772 113.808 386.226V386.226ZM58.9379 347.658C58.9075 347.54 58.9046 347.416 58.9296 347.296C58.9546 347.177 59.0067 347.064 59.0819 346.968C59.1589 346.868 59.2579 346.786 59.3713 346.73C59.4847 346.674 59.6094 346.645 59.7359 346.644H101.688C101.877 346.643 102.06 346.708 102.207 346.827C102.354 346.946 102.454 347.113 102.492 347.298L108.948 377.4C87.3899 356.586 84.9479 380.466 84.9479 380.466C72.7799 374.13 69.2639 381.066 68.2439 385.632L58.9379 347.658Z" fill="#D7E8F0"/>
<path d="M71.0521 362.004C73.3921 361.278 74.5021 358.176 73.5421 355.074C72.5821 351.972 69.9001 350.052 67.5421 350.778C65.1841 351.504 64.0921 354.606 65.0581 357.702C66.0241 360.798 68.7181 362.73 71.0521 362.004Z" fill="#D7E8F0"/>
<path d="M81.3242 361.296H95.0882C96.7982 361.296 98.5142 361.296 100.224 361.296H100.47C100.952 361.309 101.43 361.219 101.874 361.032C102.181 360.88 102.442 360.649 102.63 360.363C102.818 360.077 102.927 359.746 102.945 359.404C102.963 359.062 102.891 358.722 102.734 358.417C102.577 358.113 102.343 357.856 102.054 357.672C101.731 357.525 101.436 357.322 101.184 357.072C101.017 356.808 100.903 356.515 100.848 356.208C100.53 355.339 99.9164 354.61 99.1142 354.15C98.5306 353.757 97.8738 353.486 97.1831 353.353C96.4924 353.22 95.7819 353.228 95.0943 353.376C94.4157 353.547 93.7947 353.895 93.2943 354.384C92.8683 354.804 92.7842 355.368 92.4542 355.836C92.2382 356.142 92.1002 356.046 91.8062 355.878C91.5122 355.71 91.3503 355.584 91.1103 355.464C90.6367 355.21 90.1454 354.992 89.6402 354.81C88.6111 354.428 87.5136 354.267 86.4182 354.336C84.4923 354.486 82.5723 355.632 81.9003 357.444C81.2947 357.452 80.7119 357.675 80.2566 358.075C79.8013 358.474 79.5033 359.022 79.4163 359.622C79.3764 359.853 79.3915 360.09 79.4603 360.314C79.5291 360.538 79.6497 360.743 79.8123 360.912C80.2498 361.226 80.7899 361.363 81.3242 361.296V361.296Z" fill="#D7E8F0"/>
<path d="M180 360.444L178.896 355.902C178.156 352.849 176.41 350.133 173.94 348.192C171.47 346.25 168.418 345.196 165.276 345.198H150.114C148.385 345.196 146.678 345.594 145.126 346.359C143.575 347.125 142.221 348.238 141.171 349.612C140.12 350.986 139.4 352.584 139.068 354.282C138.736 355.98 138.799 357.731 139.254 359.4L140.508 364.014C141.309 366.983 143.067 369.605 145.508 371.473C147.95 373.342 150.94 374.354 154.014 374.352H169.086C170.789 374.351 172.469 373.963 173.999 373.217C175.53 372.472 176.871 371.389 177.922 370.05C178.973 368.71 179.706 367.15 180.066 365.486C180.426 363.822 180.404 362.098 180 360.444ZM163.326 361.566L158.148 364.752C157.949 364.879 157.723 364.958 157.488 364.982C157.253 365.007 157.015 364.977 156.794 364.895C156.572 364.812 156.373 364.679 156.211 364.507C156.05 364.334 155.93 364.127 155.862 363.9L153.912 357.528C153.831 357.245 153.831 356.945 153.913 356.662C153.995 356.38 154.156 356.126 154.376 355.931C154.597 355.736 154.869 355.608 155.159 355.562C155.45 355.515 155.748 355.552 156.018 355.668L163.2 358.842C163.457 358.958 163.677 359.142 163.837 359.374C163.996 359.606 164.089 359.877 164.104 360.159C164.12 360.44 164.057 360.72 163.925 360.968C163.792 361.216 163.593 361.423 163.35 361.566H163.326Z" fill="white"/>
<path d="M176.616 401.243H150.09C148.876 401.241 147.688 400.886 146.672 400.222C145.656 399.557 144.854 398.611 144.366 397.499C144.215 397.157 144.133 396.788 144.126 396.413C144.132 395.69 144.424 394.998 144.937 394.488C145.451 393.978 146.144 393.691 146.868 393.689H175.068C173.742 395.933 174.414 399.035 176.616 401.243Z" fill="#D7E8F0"/>
<path d="M193.8 398.519C193.798 399.241 193.511 399.933 193 400.444C192.49 400.954 191.798 401.242 191.076 401.243H176.616C174.414 399.035 173.742 395.933 175.068 393.689H187.8C189.012 393.69 190.198 394.042 191.214 394.704C192.23 395.365 193.033 396.307 193.524 397.415C193.69 397.761 193.784 398.137 193.8 398.519V398.519Z" fill="#3FBDF1"/>
<path d="M187.134 401.244C187.059 401.388 186.973 401.526 186.876 401.658C184.98 404.244 180.876 404.484 177.69 402.156C177.309 401.879 176.95 401.574 176.616 401.244C174.414 399.035 173.742 395.934 175.068 393.69C175.142 393.546 175.228 393.41 175.326 393.281C177.204 390.677 181.326 390.449 184.494 392.759C184.878 393.043 185.241 393.353 185.58 393.69C187.8 395.898 188.442 398.999 187.134 401.244Z" fill="white"/>
<path d="M200.442 415.2C200.436 415.924 200.144 416.615 199.631 417.126C199.118 417.636 198.424 417.922 197.7 417.924H92.5682C93.9122 415.668 93.2402 412.578 91.0322 410.376H194.478C195.692 410.376 196.879 410.729 197.894 411.393C198.91 412.057 199.71 413.002 200.196 414.114C200.352 414.455 200.435 414.825 200.442 415.2V415.2Z" fill="#3FBDF1"/>
<path d="M92.5679 417.894H79.4699C78.2574 417.894 77.0709 417.542 76.0547 416.88C75.0386 416.219 74.2364 415.277 73.7459 414.168C73.5916 413.82 73.5099 413.444 73.5059 413.064C73.5051 412.706 73.575 412.352 73.7117 412.021C73.8484 411.691 74.0491 411.391 74.3023 411.138C74.5555 410.885 74.8561 410.685 75.187 410.549C75.5178 410.413 75.8722 410.344 76.2299 410.346H91.0319C93.2399 412.548 93.9119 415.638 92.5679 417.894Z" fill="#D7E8F0"/>
<path d="M92.5682 417.894C92.5066 418.042 92.4259 418.181 92.3282 418.308C90.4502 420.912 86.3282 421.134 83.1542 418.824C82.772 418.541 82.411 418.23 82.0742 417.894C79.8842 415.686 79.2122 412.602 80.5202 410.346C80.5931 410.2 80.6794 410.062 80.7782 409.932C82.6742 407.346 86.7782 407.106 89.9642 409.428C90.3445 409.705 90.7016 410.012 91.0322 410.346C93.2402 412.548 93.9122 415.638 92.5682 417.894Z" fill="white"/>
<path d="M101.844 434.4H85.2002C83.988 434.399 82.8022 434.046 81.7863 433.385C80.7704 432.724 79.968 431.782 79.4762 430.674C79.3112 430.339 79.2172 429.973 79.2002 429.6C79.2018 428.875 79.4905 428.18 80.0033 427.667C80.5161 427.155 81.211 426.866 81.9362 426.864H100.278C99.0002 429.132 99.6542 432.216 101.844 434.4Z" fill="#3FBDF1"/>
<path d="M206.148 431.718C206.138 432.437 205.844 433.124 205.328 433.627C204.813 434.13 204.12 434.408 203.4 434.4H101.844C99.6538 432.192 98.9818 429.108 100.29 426.852H200.184C201.397 426.851 202.584 427.205 203.6 427.869C204.615 428.533 205.415 429.478 205.902 430.59C206.061 430.945 206.144 431.329 206.148 431.718V431.718Z" fill="#D7E8F0"/>
<path d="M112.356 434.4C112.283 434.546 112.197 434.684 112.098 434.814C110.22 437.418 106.098 437.64 102.93 435.33C102.546 435.047 102.183 434.736 101.844 434.4C99.6538 432.192 98.9818 429.108 100.29 426.852C100.365 426.708 100.451 426.569 100.548 426.438C102.444 423.852 106.548 423.624 109.734 425.934C110.115 426.209 110.473 426.516 110.802 426.852C113.01 429.078 113.682 432.18 112.356 434.4Z" fill="white"/>
<g opacity="0.21">
<path opacity="0.21" d="M115.26 387.672L106.8 348.15C106.625 347.315 106.167 346.565 105.504 346.027C104.84 345.489 104.012 345.197 103.158 345.198H61.2001C60.632 345.198 60.0715 345.328 59.5617 345.579C59.052 345.83 58.6066 346.194 58.2601 346.644C57.9164 347.085 57.6782 347.599 57.5638 348.146C57.4494 348.693 57.4618 349.259 57.6001 349.8L67.4101 389.79C67.5298 390.347 67.7877 390.865 68.1601 391.296C68.4972 391.723 68.9266 392.068 69.4161 392.305C69.9055 392.541 70.4423 392.664 70.9861 392.664H71.0821L111.678 392.178C112.225 392.172 112.764 392.044 113.256 391.804C113.747 391.565 114.18 391.219 114.522 390.792C114.867 390.358 115.112 389.854 115.239 389.315C115.367 388.775 115.374 388.215 115.26 387.672V387.672ZM60.3841 349.11C60.3535 348.991 60.3512 348.867 60.3772 348.747C60.4033 348.628 60.457 348.516 60.5341 348.42C60.6092 348.319 60.707 348.237 60.8195 348.181C60.9321 348.125 61.0563 348.096 61.1821 348.096H103.134C103.323 348.095 103.507 348.158 103.654 348.276C103.802 348.394 103.904 348.56 103.944 348.744L110.4 378.846C88.8361 358.026 86.4001 381.912 86.4001 381.912C74.2381 375.576 70.7161 382.512 69.7021 387.078L60.3841 349.11Z" fill="#D7E8F0"/>
<path opacity="0.21" d="M72.5039 363.45C74.8379 362.724 75.9539 359.622 74.9879 356.526C74.0219 353.43 71.3519 351.498 68.9879 352.224C66.6239 352.95 65.5379 356.052 66.4979 359.154C67.4579 362.256 70.1999 364.2 72.5039 363.45Z" fill="#D7E8F0"/>
<path opacity="0.21" d="M82.8003 362.748H96.5583C98.2743 362.748 99.9843 362.748 101.7 362.748H101.94C102.422 362.761 102.901 362.671 103.344 362.484C103.652 362.333 103.915 362.103 104.104 361.817C104.294 361.53 104.403 361.199 104.421 360.856C104.44 360.514 104.366 360.173 104.209 359.868C104.051 359.563 103.815 359.306 103.524 359.124C103.204 358.972 102.91 358.769 102.654 358.524C102.492 358.255 102.379 357.961 102.318 357.654C102 356.788 101.389 356.062 100.59 355.602C100.006 355.208 99.3484 354.936 98.6565 354.803C97.9646 354.67 97.2529 354.678 96.5643 354.828C95.8969 355 95.2879 355.348 94.8003 355.836C94.3683 356.256 94.2903 356.814 93.9603 357.288C93.7443 357.594 93.6063 357.498 93.3123 357.324C93.0183 357.15 92.8563 357.036 92.6163 356.91C92.1427 356.658 91.6514 356.442 91.1463 356.262C90.1175 355.879 89.02 355.715 87.9243 355.782C85.9983 355.932 84.0783 357.084 83.4003 358.89C82.795 358.899 82.2129 359.124 81.7587 359.525C81.3045 359.925 81.0079 360.474 80.9223 361.074C80.8836 361.304 80.8987 361.541 80.9663 361.764C81.034 361.988 81.1524 362.193 81.3123 362.364C81.7457 362.667 82.2742 362.804 82.8003 362.748V362.748Z" fill="#D7E8F0"/>
<path opacity="0.21" d="M181.476 361.891L180.372 357.355C179.63 354.3 177.884 351.583 175.413 349.641C172.941 347.699 169.889 346.643 166.746 346.645H151.56C149.832 346.643 148.127 347.041 146.577 347.805C145.028 348.57 143.675 349.681 142.625 351.053C141.574 352.425 140.854 354.021 140.52 355.716C140.187 357.411 140.248 359.161 140.7 360.829L141.954 365.449C142.756 368.418 144.514 371.04 146.957 372.908C149.4 374.777 152.39 375.789 155.466 375.787H170.538C172.241 375.787 173.921 375.401 175.453 374.658C176.985 373.914 178.328 372.833 179.381 371.495C180.435 370.157 181.17 368.597 181.533 366.934C181.896 365.27 181.876 363.546 181.476 361.891V361.891ZM164.796 363.001L159.6 366.205C159.401 366.331 159.175 366.41 158.94 366.435C158.706 366.46 158.468 366.429 158.247 366.347C158.026 366.264 157.828 366.131 157.667 365.959C157.506 365.786 157.387 365.579 157.32 365.353L155.4 358.975C155.319 358.692 155.321 358.393 155.403 358.111C155.486 357.829 155.647 357.577 155.868 357.383C156.088 357.189 156.359 357.061 156.649 357.015C156.939 356.968 157.236 357.005 157.506 357.121L164.634 360.289C164.887 360.406 165.103 360.589 165.26 360.819C165.417 361.049 165.509 361.318 165.526 361.596C165.542 361.874 165.483 362.152 165.355 362.399C165.226 362.646 165.033 362.854 164.796 363.001V363.001Z" fill="#D7E8F0"/>
<path opacity="0.21" d="M178.068 402.69H151.542C150.328 402.688 149.142 402.333 148.126 401.67C147.11 401.006 146.308 400.062 145.818 398.952C145.631 398.538 145.552 398.083 145.587 397.63C145.623 397.176 145.773 396.74 146.022 396.36C146.272 395.98 146.613 395.669 147.015 395.456C147.417 395.243 147.865 395.135 148.32 395.142H176.52C175.2 397.38 175.86 400.488 178.068 402.69Z" fill="#D7E8F0"/>
<path opacity="0.21" d="M195.216 399.967C195.216 400.688 194.93 401.38 194.42 401.891C193.911 402.401 193.219 402.689 192.498 402.691H178.068C175.86 400.489 175.188 397.381 176.514 395.143H189.252C190.465 395.142 191.651 395.493 192.668 396.155C193.684 396.816 194.486 397.759 194.976 398.869C195.13 399.215 195.211 399.588 195.216 399.967Z" fill="#3FBDF1"/>
<path opacity="0.21" d="M188.58 402.69C188.509 402.837 188.423 402.976 188.322 403.104C186.426 405.69 182.322 405.93 179.136 403.608C178.757 403.33 178.4 403.023 178.068 402.69C175.86 400.488 175.188 397.38 176.514 395.142C176.589 394.996 176.677 394.858 176.778 394.728C178.656 392.124 182.778 391.902 185.946 394.212C186.33 394.495 186.693 394.806 187.032 395.142C189.222 397.35 189.894 400.434 188.58 402.69Z" fill="white"/>
<path opacity="0.21" d="M201.888 416.622C201.882 417.345 201.59 418.036 201.077 418.545C200.563 419.054 199.869 419.34 199.146 419.34H94.0204C95.3644 417.084 94.6924 414 92.4844 411.792H195.924C197.139 411.792 198.328 412.146 199.344 412.811C200.361 413.476 201.162 414.423 201.648 415.536C201.803 415.878 201.884 416.247 201.888 416.622V416.622Z" fill="#3FBDF1"/>
<path opacity="0.21" d="M94.0202 419.34H80.9162C79.7047 419.339 78.5193 418.987 77.5035 418.327C76.4877 417.667 75.6849 416.727 75.1921 415.62C75.0412 415.271 74.9597 414.896 74.9521 414.516C74.9521 413.794 75.2391 413.101 75.75 412.59C76.2608 412.079 76.9537 411.792 77.6762 411.792H92.4842C94.6922 414 95.3642 417.084 94.0202 419.34Z" fill="#D7E8F0"/>
<path opacity="0.21" d="M94.0198 419.34C93.9583 419.49 93.8754 419.629 93.7738 419.754C91.8958 422.358 87.7738 422.586 84.6058 420.276C84.2213 419.992 83.8584 419.679 83.5198 419.34C81.3298 417.138 80.6578 414.048 81.9718 411.792C82.0424 411.645 82.129 411.507 82.2298 411.378C84.1258 408.793 88.2298 408.552 91.4158 410.88C91.7933 411.158 92.1503 411.463 92.4838 411.792C94.6918 414 95.3638 417.084 94.0198 419.34Z" fill="white"/>
<path opacity="0.21" d="M103.29 435.87H86.6222C85.411 435.868 84.2264 435.516 83.2108 434.856C82.1953 434.196 81.3922 433.256 80.8982 432.15C80.7475 431.808 80.6659 431.439 80.6582 431.064C80.6614 430.338 80.9513 429.642 81.4648 429.129C81.9784 428.615 82.674 428.325 83.4002 428.322H101.742C100.428 430.578 101.1 433.668 103.29 435.87Z" fill="#3FBDF1"/>
<path opacity="0.21" d="M207.6 433.164C207.6 433.521 207.528 433.874 207.391 434.203C207.254 434.532 207.053 434.831 206.8 435.082C206.547 435.334 206.246 435.533 205.916 435.668C205.586 435.803 205.233 435.872 204.876 435.87H103.29C101.1 433.668 100.428 430.578 101.742 428.322H201.63C202.845 428.322 204.034 428.676 205.05 429.341C206.067 430.006 206.868 430.953 207.354 432.066C207.51 432.412 207.594 432.785 207.6 433.164Z" fill="#D7E8F0"/>
<path opacity="0.21" d="M113.808 435.87C113.733 436.016 113.645 436.155 113.544 436.284C111.666 438.888 107.544 439.116 104.376 436.806C103.992 436.521 103.629 436.209 103.29 435.87C101.1 433.668 100.428 430.578 101.742 428.322C101.813 428.175 101.899 428.037 102 427.908C103.896 425.322 108 425.1 111.186 427.41C111.564 427.688 111.921 427.993 112.254 428.322C114.462 430.53 115.134 433.632 113.808 435.87Z" fill="white"/>
</g>
</svg>
